<svg id="Capa_1" enable-background="new 0 0 512 512" height="512" viewBox="0 0 512 512" width="512" xmlns="http://www.w3.org/2000/svg"><g><g><g><g><g><path d="m30 30v452h452v-452z" fill="#d599ed"/></g></g></g></g><path d="m256 30h226v452h-226z" fill="#ad77e3"/><g><g><g><path d="m151 181h-30v-60h60v30h-30z" fill="#ad77e3"/></g></g></g><g><g><g><path d="m391 181h-30v-30h-30v-30h60z" fill="#935ed0"/></g></g></g><g><g><g><path d="m181 391h-60v-60h30v30h30z" fill="#ad77e3"/></g></g></g><g><g><g><path d="m391 391h-60v-30h30v-30h30z" fill="#935ed0"/></g></g></g><g><g><g><path d="m211 121h90v30h-90z" fill="#ad77e3"/></g></g></g><g><g><g><path d="m211 361h90v30h-90z" fill="#ad77e3"/></g></g></g><g><g><g><path d="m121 211h30v90h-30z" fill="#ad77e3"/></g></g></g><g><g><g><path d="m361 211h30v90h-30z" fill="#935ed0"/></g></g></g><path d="m256 121h45v30h-45z" fill="#935ed0"/><path d="m256 361h45v30h-45z" fill="#935ed0"/><g><path d="m121 421h30v91h-30z" fill="#ad77e3"/></g><g><g><g><path d="m241 421h30v91h-30z" fill="#ad77e3"/></g></g></g><g><g><g><path d="m361 421h30v91h-30z" fill="#935ed0"/></g></g></g><path d="m256 421h15v91h-15z" fill="#935ed0"/><g><path d="m421 361h91v30h-91z" fill="#935ed0"/></g><g><path d="m421 241h91v30h-91z" fill="#935ed0"/></g><g><path d="m421 121h91v30h-91z" fill="#935ed0"/></g><g><path d="m0 361h91v30h-91z" fill="#ad77e3"/></g><g><path d="m0 241h91v30h-91z" fill="#ad77e3"/></g><g><path d="m0 121h91v30h-91z" fill="#ad77e3"/></g><g><path d="m121 0h30v91h-30z" fill="#ad77e3"/></g><g><path d="m241 0h30v91h-30z" fill="#ad77e3"/></g><g><g><g><path d="m361 0h30v91h-30z" fill="#935ed0"/></g></g></g><path d="m256 0h15v91h-15z" fill="#935ed0"/></g></svg>