<?xml version="1.0" standalone="no"?>
<!DOCTYPE svg PUBLIC "-//W3C//DTD SVG 20010904//EN"
 "http://www.w3.org/TR/2001/REC-SVG-20010904/DTD/svg10.dtd">
<svg version="1.0" xmlns="http://www.w3.org/2000/svg"
 width="700.000000pt" height="700.000000pt" viewBox="0 0 700.000000 700.000000"
 preserveAspectRatio="xMidYMid meet">
<metadata>
Created by potrace 1.11, written by Peter Selinger 2001-2013
</metadata>
<g transform="translate(0.000000,700.000000) scale(0.100000,-0.100000)"
fill="#000000" stroke="none">
<path d="M1410 6979 c-6 -11 -29 -70 -51 -131 -38 -109 -53 -138 -69 -138 -5
0 -56 -22 -114 -50 -95 -44 -106 -52 -106 -75 0 -23 11 -31 98 -70 53 -25 108
-51 122 -58 20 -10 35 -39 71 -140 25 -70 50 -132 56 -138 21 -21 48 0 67 53
10 29 32 89 48 134 l29 81 107 48 c59 26 114 54 124 62 30 26 14 55 -45 82
-23 11 -76 35 -117 54 l-75 34 -35 107 c-19 59 -38 110 -42 112 -5 3 -8 13 -8
24 0 16 -18 30 -40 30 -5 0 -14 -9 -20 -21z"/>
<path d="M3611 6372 c-37 -20 -71 -73 -71 -110 0 -97 105 -161 191 -117 92 48
88 191 -6 231 -46 19 -73 18 -114 -4z"/>
<path d="M5705 6002 c-47 -5 -126 -33 -170 -60 -52 -33 -100 -82 -381 -389
-16 -17 -76 -80 -133 -140 l-103 -109 -87 32 c-121 46 -210 61 -338 58 -192
-5 -412 -87 -548 -206 -23 -21 -44 -35 -47 -33 -13 13 -212 78 -322 105 -206
50 -395 73 -611 71 -179 -1 -269 -8 -445 -37 -61 -10 -247 -53 -307 -70 -32
-10 -63 -19 -70 -20 -6 -1 -69 -24 -140 -50 -158 -60 -384 -171 -523 -259 -86
-55 -271 -185 -290 -205 -3 -3 -39 -34 -80 -69 -148 -126 -327 -319 -473 -511
-107 -140 -251 -392 -326 -570 -18 -41 -36 -84 -41 -95 -29 -70 -101 -298
-115 -365 -2 -8 -10 -50 -19 -92 -9 -42 -18 -94 -22 -115 -3 -21 -7 -49 -9
-63 -5 -25 -11 -81 -20 -180 -13 -139 -3 -428 21 -565 2 -16 9 -57 15 -90 23
-132 94 -380 128 -442 8 -16 1 -32 -46 -94 -68 -90 -126 -210 -156 -322 -31
-121 -31 -334 2 -444 5 -18 8 -33 6 -33 -3 0 11 -36 29 -80 75 -178 215 -339
372 -431 101 -59 170 -85 299 -116 44 -10 234 -12 295 -3 146 23 297 88 415
179 l60 46 125 -42 c268 -90 472 -124 770 -128 288 -4 461 16 730 86 322 84
650 236 915 423 73 51 182 133 201 151 6 5 40 35 75 65 218 187 442 455 603
720 63 104 196 370 196 392 0 8 4 18 9 23 4 6 23 53 41 105 18 52 33 96 34 97
1 2 22 -16 47 -40 162 -152 283 -248 454 -362 256 -171 357 -216 488 -218 91
-2 142 5 203 26 155 56 272 166 334 318 64 155 156 469 184 629 3 19 8 46 11
60 3 14 7 49 11 78 3 29 8 63 11 75 12 54 11 426 -2 522 -23 170 -26 187 -60
305 -129 446 -430 840 -910 1187 -61 43 -126 89 -145 100 -70 43 -196 117
-218 129 -13 6 -23 15 -24 19 0 4 49 57 109 119 217 222 309 344 343 454 22
72 28 146 15 202 -21 94 -104 199 -190 239 -48 22 -132 38 -180 33z"/>
<path d="M590 5390 c-103 -18 -162 -108 -136 -206 21 -78 79 -124 157 -124 58
0 102 22 136 67 23 30 28 46 28 99 0 55 -4 67 -31 101 -37 46 -102 72 -154 63z"/>
</g>
</svg>
